<?xml version="1.0" encoding="UTF-8" standalone="no"?>
<svg
   xmlns:dc="http://purl.org/dc/elements/1.1/"
   xmlns:cc="http://creativecommons.org/ns#"
   xmlns:rdf="http://www.w3.org/1999/02/22-rdf-syntax-ns#"
   xmlns:svg="http://www.w3.org/2000/svg"
   xmlns="http://www.w3.org/2000/svg"
   xmlns:xlink="http://www.w3.org/1999/xlink"
   xmlns:sodipodi="http://sodipodi.sourceforge.net/DTD/sodipodi-0.dtd"
   xmlns:inkscape="http://www.inkscape.org/namespaces/inkscape"
   width="48"
   height="48"
   viewBox="0 0 12.7 12.7"
   version="1.1"
   id="svg8"
   inkscape:version="1.0.2 (e86c870879, 2021-01-15)"
   sodipodi:docname="sc-apps-feedkeeper.svg"
   inkscape:export-filename="/home/connor/Projects/feedkeeper/android/res/drawable/splash.png"
   inkscape:export-xdpi="384"
   inkscape:export-ydpi="384">
  <defs
     id="defs2">
    <linearGradient
       inkscape:collect="always"
       id="linearGradient869">
      <stop
         style="stop-color:#ada8a2;stop-opacity:1;"
         offset="0"
         id="stop865" />
      <stop
         style="stop-color:#7e776f;stop-opacity:1"
         offset="1"
         id="stop867" />
    </linearGradient>
    <linearGradient
       inkscape:collect="always"
       id="linearGradient963">
      <stop
         style="stop-color:#000000;stop-opacity:0.30000001"
         offset="0"
         id="stop959" />
      <stop
         style="stop-color:#000000;stop-opacity:0"
         offset="1"
         id="stop961" />
    </linearGradient>
    <linearGradient
       inkscape:collect="always"
       id="linearGradient1250">
      <stop
         style="stop-color:#d35400;stop-opacity:1"
         offset="0"
         id="stop1246" />
      <stop
         style="stop-color:#f39c1f;stop-opacity:1"
         offset="1"
         id="stop1248" />
    </linearGradient>
    <linearGradient
       inkscape:collect="always"
       id="linearGradient984">
      <stop
         style="stop-color:#1d99f3;stop-opacity:1;"
         offset="0"
         id="stop980" />
      <stop
         style="stop-color:#3daee9;stop-opacity:1"
         offset="1"
         id="stop982" />
    </linearGradient>
    <linearGradient
       inkscape:collect="always"
       xlink:href="#linearGradient1250"
       id="linearGradient986"
       x1="6.0854168"
       y1="4.4979167"
       x2="4.7624998"
       y2="5.8208332"
       gradientUnits="userSpaceOnUse"
       gradientTransform="matrix(0.9500629,0,0,0.94443376,0.5820169,-0.02935229)" />
    <linearGradient
       inkscape:collect="always"
       xlink:href="#linearGradient984"
       id="linearGradient1013"
       gradientUnits="userSpaceOnUse"
       x1="9.7895832"
       y1="2.3812499"
       x2="8.9958334"
       y2="3.175"
       gradientTransform="matrix(0.97359429,0,0,1.4000004,0.04275054,-1.6404176)" />
    <style
       type="text/css"
       id="current-color-scheme">
      .ColorScheme-Text {
        color:#232629;
      }
      </style>
    <filter
       style="color-interpolation-filters:sRGB"
       id="filter1186"
       inkscape:label="filter0">
      <feGaussianBlur
         stdDeviation="29.078728421118949"
         id="feGaussianBlur1188" />
    </filter>
    <filter
       style="color-interpolation-filters:sRGB;"
       inkscape:label="Blur"
       id="filter1232">
      <feGaussianBlur
         stdDeviation="0.2 0.2"
         result="blur"
         id="feGaussianBlur1230" />
    </filter>
    <linearGradient
       inkscape:collect="always"
       xlink:href="#linearGradient963"
       id="linearGradient965"
       x1="6.6145835"
       y1="3.96875"
       x2="8.7312498"
       y2="6.3499999"
       gradientUnits="userSpaceOnUse"
       gradientTransform="matrix(1.0000662,0,0,0.99998868,0.13961496,-0.1771203)" />
    <filter
       inkscape:collect="always"
       style="color-interpolation-filters:sRGB"
       id="filter1025"
       x="-0.047454144"
       width="1.0949083"
       y="-0.04855856"
       height="1.0971171">
      <feGaussianBlur
         inkscape:collect="always"
         stdDeviation="0.23018949"
         id="feGaussianBlur1027" />
    </filter>
    <filter
       style="color-interpolation-filters:sRGB;"
       inkscape:label="Blur"
       id="filter863">
      <feGaussianBlur
         stdDeviation="0.2 0.2"
         result="blur"
         id="feGaussianBlur861" />
    </filter>
    <linearGradient
       inkscape:collect="always"
       xlink:href="#linearGradient869"
       id="linearGradient871"
       x1="11.944916"
       y1="6.6081452"
       x2="11.642049"
       y2="6.6063809"
       gradientUnits="userSpaceOnUse" />
  </defs>
  <sodipodi:namedview
     id="base"
     pagecolor="#ffffff"
     bordercolor="#666666"
     borderopacity="1.0"
     inkscape:pageopacity="0"
     inkscape:pageshadow="2"
     inkscape:zoom="8.1019645"
     inkscape:cx="56.765738"
     inkscape:cy="18.65372"
     inkscape:document-units="mm"
     inkscape:current-layer="layer1"
     inkscape:document-rotation="0"
     showgrid="true"
     units="px"
     inkscape:snap-bbox="true"
     inkscape:bbox-paths="true"
     inkscape:snap-grids="false"
     showguides="true"
     inkscape:window-width="1920"
     inkscape:window-height="1053"
     inkscape:window-x="0"
     inkscape:window-y="27"
     inkscape:window-maximized="1"
     inkscape:snap-nodes="true"
     inkscape:object-paths="true"
     inkscape:snap-smooth-nodes="true">
    <inkscape:grid
       type="xygrid"
       id="grid841"
       empspacing="5"
       color="#0000ff"
       opacity="0.25098039"
       dotted="false"
       visible="false" />
  </sodipodi:namedview>
  <metadata
     id="metadata5">
    <rdf:RDF>
      <cc:Work
         rdf:about="">
        <dc:format>image/svg+xml</dc:format>
        <dc:type
           rdf:resource="http://purl.org/dc/dcmitype/StillImage" />
        <dc:title></dc:title>
      </cc:Work>
    </rdf:RDF>
  </metadata>
  <g
     inkscape:groupmode="layer"
     id="layer4"
     inkscape:label="Layer 2"
     style="display:inline;opacity:1;mix-blend-mode:normal;filter:url(#filter1025)">
    <path
       id="path886"
       style="color:#000000;font-style:normal;font-variant:normal;font-weight:normal;font-stretch:normal;font-size:medium;line-height:normal;font-family:sans-serif;font-variant-ligatures:normal;font-variant-position:normal;font-variant-caps:normal;font-variant-numeric:normal;font-variant-alternates:normal;font-variant-east-asian:normal;font-feature-settings:normal;font-variation-settings:normal;text-indent:0;text-align:start;text-decoration:none;text-decoration-line:none;text-decoration-style:solid;text-decoration-color:#000000;letter-spacing:normal;word-spacing:normal;text-transform:none;writing-mode:lr-tb;direction:ltr;text-orientation:mixed;dominant-baseline:auto;baseline-shift:baseline;text-anchor:start;white-space:normal;shape-padding:0;shape-margin:0;inline-size:0;clip-rule:nonzero;display:inline;overflow:visible;visibility:visible;isolation:auto;mix-blend-mode:normal;color-interpolation:sRGB;color-interpolation-filters:linearRGB;solid-color:#000000;solid-opacity:1;vector-effect:none;fill:#000000;fill-opacity:1;fill-rule:evenodd;stroke:none;stroke-width:0.264584;stroke-linecap:butt;stroke-linejoin:miter;stroke-miterlimit:4;stroke-dasharray:none;stroke-dashoffset:0;stroke-opacity:1;color-rendering:auto;image-rendering:auto;shape-rendering:auto;text-rendering:auto;enable-background:accumulate;stop-color:#000000"
       d="M 0.59531249,0.59531296 V 0.72812177 11.536796 c -4.66e-6,0.226994 0.16545259,0.431403 0.39066881,0.431499 l 10.7206547,0.0041 0.0015,-7.440394 -5.16e-4,7.440394 c 0,0 0.527859,-8.9443533 0.529159,-9.9296549 0.0074,-0.1846448 -0.191929,-0.3894212 -0.3793,-0.3880912 L 11.708703,1.6536494 V 1.0350807 l -0.0021,0.00155 c 0.004,-0.23735285 -0.173549,-0.44132481 -0.404108,-0.4413182 z" />
  </g>
  <g
     inkscape:label="Layer 1"
     inkscape:groupmode="layer"
     id="layer1"
     style="display:inline">
    <path
       id="rect833"
       style="color:#000000;overflow:visible;fill:#faf3ea;fill-opacity:1;fill-rule:evenodd;stroke:#faf3ea;stroke-width:0.264583;stroke-miterlimit:4;stroke-dasharray:none;stroke-opacity:1"
       d="M 0.66159872,0.66175941 11.236959,0.66145818 c 0.143048,-4.07e-6 0.275185,0.14193673 0.272368,0.30775826 L 11.508736,11.773937 0.91932755,11.769371 C 0.77627856,11.76931 0.66111304,11.635983 0.66111637,11.47029 Z"
       sodipodi:nodetypes="csccscc" />
    <path
       style="fill:url(#linearGradient965);fill-opacity:1;fill-rule:evenodd;stroke:none;stroke-width:0.264583px;stroke-linecap:butt;stroke-linejoin:miter;stroke-opacity:1"
       d="m 1.3933235,8.5974885 2.3807155,2.6459245 7.213519,-0.04346 V 8.5541512 L 6.7546362,3.791585 Z"
       id="path957"
       sodipodi:nodetypes="cccccc" />
    <rect
       style="color:#000000;font-variation-settings:normal;overflow:visible;opacity:1;vector-effect:none;fill:url(#linearGradient1013);fill-opacity:1;fill-rule:evenodd;stroke:none;stroke-width:0.529166;stroke-linecap:butt;stroke-linejoin:miter;stroke-miterlimit:4;stroke-dasharray:none;stroke-dashoffset:0;stroke-opacity:0.2;stop-color:#000000;stop-opacity:1"
       id="rect837"
       width="10.054166"
       height="1.8520834"
       x="1.0583333"
       y="1.3229166"
       ry="0.084137499"
       rx="0.084137507" />
    <rect
       style="color:#000000;overflow:visible;fill:url(#linearGradient986);fill-opacity:1;fill-rule:evenodd;stroke:#4d4d4d;stroke-width:0.529;stroke-miterlimit:4;stroke-dasharray:none;stroke-opacity:1;paint-order:markers stroke fill"
       id="rect839"
       width="5.0274162"
       height="4.4978662"
       x="1.5875"
       y="3.96875"
       rx="0.084137507"
       ry="0.084137499" />
    <path
       id="rect843-35"
       style="color:#000000;overflow:visible;fill:#c9ce3b;fill-opacity:0.60000002;fill-rule:evenodd;stroke:none;stroke-width:2;stroke-miterlimit:4;stroke-dasharray:none;stroke-opacity:1"
       d="m 29,14 c -0.554,0 -1,0.400385 -1,0.898438 V 35 l -21.9999999,10e-7 c -0.554,0 -1,0.400385 -1,0.898438 v 5.203124 c 0,0.498053 0.446,0.898438 1,0.898438 L 40.001953,42 c 0.554,0 1,-0.400385 1,-0.898438 C 40.993823,32.189682 40.999401,22.683559 41,14.898438 41,14.400385 40.554,14 40,14 Z"
       transform="scale(0.26458333)"
       sodipodi:nodetypes="sscsssssccss" />
    <path
       id="rect902"
       style="color:#000000;overflow:visible;fill:url(#linearGradient871);fill-opacity:1;fill-rule:evenodd;stroke:none;stroke-width:0.529167;stroke-miterlimit:4;stroke-dasharray:none;stroke-opacity:1"
       d="m 12.170833,1.976805 c -0.0013,0.9852988 -0.529166,9.929445 -0.529166,9.929445 0,0 0.265064,2.94e-4 0,0 l 7.44e-4,-10.3187603 0.148915,0.00125 c 0.187374,-0.00133 0.386856,0.2034211 0.37947,0.3880653 z"
       sodipodi:nodetypes="ccccccc" />
    <path
       style="fill:currentColor;fill-opacity:1;stroke:none"
       d="m 2.3424932,4.4690969 v 0.5829594 c 1.6193027,0 2.9319257,1.3049547 2.9319257,2.9147972 h 0.5863853 v -0.018364 c 0,-0.1139686 -0.00762,-0.2258969 -0.018472,-0.3369507 -5.878e-4,-0.00611 5.876e-4,-0.012243 0,-0.018363 -0.011435,-0.1110534 -0.033424,-0.2203583 -0.055121,-0.3279143 -0.00117,-0.00584 0.00117,-0.012535 0,-0.018363 C 5.7180182,6.9096571 5.5986894,6.5934015 5.4388997,6.29959 c -0.00117,-0.00234 0.00117,-0.007 0,-0.00904 C 5.0052681,5.496563 4.271114,4.892034 3.386552,4.6235811 3.2818822,4.591227 3.1742806,4.5641194 3.0657992,4.5416754 c -0.00587,-0.00116 -0.012606,0.00116 -0.018471,0 -0.1087748,-0.022154 -0.2178424,-0.042847 -0.3298418,-0.054798 -0.00616,-5.829e-4 -0.012314,5.83e-4 -0.018472,0 C 2.5867223,4.475509 2.4750159,4.4693879 2.3600843,4.4685135 h -0.018472 m 0,1.1659189 v 0.5829592 c 0.9716401,0 1.7591555,0.7829144 1.7591555,1.7488784 h 0.5863855 c 0,-1.2877575 -1.0502159,-2.3318379 -2.3455406,-2.3318379 M 2.9279976,6.800351 c -0.3239776,0 -0.5863851,0.2608744 -0.5863851,0.5829594 0,0.322085 0.2624075,0.5829595 0.5863851,0.5829595 0.323978,0 0.5863853,-0.2608745 0.5863853,-0.5829595 0,-0.322085 -0.2624073,-0.5829594 -0.5863853,-0.5829594"
       stroke-width="0.0396919"
       class="ColorScheme-Text"
       id="path1023" />
  </g>
</svg>
