<?xml version="1.0" encoding="UTF-8" standalone="no"?>
<svg
   xmlns:dc="http://purl.org/dc/elements/1.1/"
   xmlns:cc="http://creativecommons.org/ns#"
   xmlns:rdf="http://www.w3.org/1999/02/22-rdf-syntax-ns#"
   xmlns:svg="http://www.w3.org/2000/svg"
   xmlns="http://www.w3.org/2000/svg"
   xmlns:sodipodi="http://sodipodi.sourceforge.net/DTD/sodipodi-0.dtd"
   xmlns:inkscape="http://www.inkscape.org/namespaces/inkscape"
   enable-background="new 0 0 96 96"
   height="96px"
   id="empty"
   version="1.1"
   viewBox="0 0 96 96"
   width="96px"
   xml:space="preserve"
   sodipodi:docname="sc-status-feedkeeper-feed-empty.svg"
   inkscape:version="1.0.1 (3bc2e813f5, 2020-09-07)"><metadata
     id="metadata23"><rdf:RDF><cc:Work
         rdf:about=""><dc:format>image/svg+xml</dc:format><dc:type
           rdf:resource="http://purl.org/dc/dcmitype/StillImage" /><dc:title /></cc:Work></rdf:RDF></metadata><defs
     id="defs21" /><sodipodi:namedview
     pagecolor="#ffffff"
     bordercolor="#666666"
     borderopacity="1"
     objecttolerance="10"
     gridtolerance="10"
     guidetolerance="10"
     inkscape:pageopacity="0"
     inkscape:pageshadow="2"
     inkscape:window-width="1920"
     inkscape:window-height="1056"
     id="namedview19"
     showgrid="false"
     inkscape:zoom="4.5790551"
     inkscape:cx="22.387166"
     inkscape:cy="51.109397"
     inkscape:window-x="0"
     inkscape:window-y="24"
     inkscape:window-maximized="1"
     inkscape:current-layer="empty"
     inkscape:document-rotation="0" /><path
     d="m 12,16 c 0,-2.21 1.79,-4 4,-4 H 31.974735 V 4 H 16 C 9.37,4 4,9.37 4,16 v 16.02057 h 8 z"
     id="path2"
     style="fill:#000000;fill-opacity:1;stroke:none;stroke-opacity:1"
     sodipodi:nodetypes="ssccssccs" /><path
     d="m 11.988412,80.328777 c 0,2.21 1.79,4 4,4 h 15.974735 v 8 H 15.988412 c -6.6300002,0 -12.0000002,-5.37 -12.0000002,-12 v -16.02057 h 8.0000002 z"
     id="path2-6"
     style="fill:#000000;fill-opacity:1;stroke:none;stroke-opacity:1"
     sodipodi:nodetypes="ssccssccs" /><path
     d="m 83.926294,16 c 0,-2.21 -1.79,-4 -4,-4 H 63.951559 V 3.9999999 h 15.974735 c 6.63,0 12,5.37 12,12.0000001 v 16.02057 h -8 z"
     id="path2-7"
     style="fill:#000000;fill-opacity:1;stroke:none;stroke-opacity:1"
     sodipodi:nodetypes="ssccssccs" /><path
     d="m 83.937882,80.328777 c 0,2.21 -1.79,4 -4,4 H 63.963147 v 8 h 15.974735 c 6.63,0 12,-5.37 12,-12 v -16.02057 h -8 z"
     id="path2-6-5"
     style="fill:#000000;fill-opacity:1;stroke:none;stroke-opacity:1"
     sodipodi:nodetypes="ssccssccs" /></svg>
